<svg xmlns="http://www.w3.org/2000/svg" width="215" height="23" viewBox="0 0 215 23">
<style>
  .a{
    fill:#3f3f48;
  }
</style>
  <defs>
    <clipPath clipPathUnits="userSpaceOnUse">
      <path width="105.4" height="24.1" x="38.4" y="55.6" ry="0.8" d="M39.2 55.6H143c0.5 0 0.8 0.4 0.8 0.8v22.4c0 0.5-0.4 0.8-0.8 0.8H39.2c-0.5 0-0.8-0.4-0.8-0.8V56.5c0-0.5 0.4-0.8 0.8-0.8z" style="fill:#00f;paint-order:markers stroke fill;stroke-width:0.7"/>
    </clipPath>
    <style>
      .cls-1{fill:#53cbc8;}.cls-2{fill:#e1147b;}
    </style>
  </defs>
  <g fill="none">
    <g fill="#3f3f41">
      <g transform="matrix(0.94203393 0 0 0.88587857 104.59558 1.0451712)" class="a">
        <path d="m26.5 7.5c1 1.3 1.5 3 1.5 5.3h-9.4c0.1 1.2 0.4 2.1 1 2.7 0.6 0.6 1.4 1 2.3 0.9 0.7 0 1.5-0.2 2.1-0.6 0.5-0.4 0.9-0.9 1.1-1.5h2.8c-0.3 1.1-0.9 2.2-1.8 2.9-1.2 1-2.7 1.5-4.2 1.4-1.9 0-3.4-0.6-4.5-1.7-1.2-1.2-1.8-2.8-1.8-4.9 0-1.9 0.5-3.4 1.7-4.7 1.1-1.3 2.5-1.9 4.4-1.9 2.1 0 3.7 0.7 4.8 2.1M19.6 8.5c-0.6 0.6-0.9 1.4-1 2.3h6.5C24.8 8.7 23.7 7.7 21.8 7.7 21 7.6 20.2 7.9 19.6 8.5Z" class="a"/>
        <path d="m41.5 10.6v7.8H38.7v-7.5c0-2.1-1-3.1-2.9-3.1-0.7 0-1.3 0.3-1.8 0.7-0.6 0.6-1 1.4-1 2.3v7.6h-2.8v-12.6h2.8v1.5c0.5-0.6 1-1 1.7-1.3 0.6-0.3 1.4-0.5 2.1-0.5 3.1 0 4.7 1.7 4.7 5.2" class="a"/>
        <path d="M14.8 18.4 9.8 11.1c0.9-0.1 1.8-0.5 2.5-1C13.4 9.2 14 7.9 14 6.3V6C14 4.3 13.4 3 12.4 2.1 11.3 1.3 9.9 1 8.1 1h-7.8v17.4h2.9v-7.1h3l4.9 7.1zM3.2 3.4h4.5c1.1 0 2 0.2 2.5 0.7 0.5 0.5 0.8 1.3 0.8 2 0 0.8-0.3 1.5-0.8 2C9.7 8.6 8.9 8.8 7.8 8.8H3.2Z" class="a"/>
        <path d="m51.5 0.7c3.2 0 6.2 0.8 6.2 4.4 0 1.7-0.8 3.2-1.9 3.8 1.6 0.7 2.7 1.9 2.7 4.2 0 3.7-2.9 5.2-6.4 5.2H45V0.7Zm0.3 7.5c1.9 0 3.1-0.8 3.1-2.7 0-1.7-1.3-2.5-3.1-2.5h-4.1v5.2zm0.2 7.9c2.4 0 3.5-1 3.5-2.9 0-1.9-1.2-2.8-3.7-2.8h-4.1v5.7z" class="a"/>
        <path d="m66.2 7.7c-1.9 0-3 0.9-3 3.7v6.9H60.7V5.2h2.5v2.3c0.6-1.4 2-2.4 3.6-2.4 0.2 0 0.5 0 0.7 0V7.8C67.1 7.8 66.6 7.7 66.2 7.7Z" class="a"/>
        <path d="M71.4 3.5H68.9V0.7h2.5zm0 14.8H68.9V5.2h2.5z" class="a"/>
        <path d="m85.7 0.7v17.6h-2.5v-1.8c-0.8 1.3-2.2 2.2-4.1 2.2-3 0-5.6-2.5-5.6-6.8 0-4.3 2.6-6.8 5.6-6.8 1.9 0 3.3 0.8 4.1 2.2V0.7ZM76.1 11.8c0 2.9 1.4 4.7 3.5 4.7 1.9 0 3.6-1.5 3.6-4.7 0-3.2-1.7-4.7-3.6-4.7-2.1 0-3.5 1.7-3.5 4.7z" class="a"/>
        <path d="m99.8 5.2v11.6c0 2.4-0.5 3.7-1.4 4.6-1 1.1-2.6 1.6-4.6 1.6-2.9 0-5.1-1.3-5.5-4H90.9c0.3 1.2 1 1.9 2.9 1.9 1.2 0 2.1-0.3 2.6-0.9 0.5-0.6 0.8-1.2 0.8-2.6v-1.4c-0.8 1.3-2.1 2.2-4 2.2-3 0-5.6-2.4-5.6-6.6 0-4.2 2.5-6.5 5.6-6.5 1.9 0 3.2 0.8 4 2.2V5.2Zm-9.4 6.3c0 2.8 1.4 4.5 3.5 4.5 1.9 0 3.5-1.4 3.5-4.5 0-3.1-1.6-4.4-3.5-4.4C91.7 7.1 90.3 8.7 90.3 11.5Z" class="a"/>
        <path d="m114.1 14.4c-0.6 2.2-2.5 4.2-5.9 4.2-4.2 0-6.5-3.1-6.5-6.9 0-4.1 2.7-6.8 6.4-6.8 4 0 6.4 3.3 6.1 7.6h-10c0.2 2.4 1.8 3.9 3.8 3.9 1.8 0 2.9-0.8 3.4-2zm-2.5-3.9c-0.1-1.9-1.4-3.5-3.5-3.5-2 0-3.4 1-3.8 3.5z" class="a"/>
      </g>
      <g transform="matrix(0.03787879 0 0 0.03787875 -5.0524466 -5.9028179)">
        <path class="cls-1" d="m600.2 622.3q-2.3-26.2-5.1-60.7-2.7-34.5-5.5-72.2-2.7-37.7-5.4-75.8-2.7-38.1-4.6-71.4-10.1 31.1-20.5 62.6-10.4 31.4-19.7 59.7-9.3 28.2-17.2 51.1-7.9 22.9-12.8 36.9-5.2 9.5-10.5 18a117.4 117.4 0 0 1-11 15 55.1 55.1 0 0 1-11.6 10.2 22.7 22.7 0 0 1-12.4 3.8q-8.5 0-14.3-3.7a16 16 0 0 1-7.2-11 27.1 27.1 0 0 1-0.4-2.9 10 10 0 0 1 0.2-2.9Q432 535.6 422.5 491.5q-9.5-44.1-17.8-86.8l-3.9-20.1q-2-10.1-3.5-19.8-6.9 27.5-15.5 57.1-8.6 29.6-18.6 58.4-9.9 28.8-21.2 55.5a486.7 486.7 0 0 1-23.5 48.5 237.6 237.6 0 0 1-25.3 37.2q-13 15.4-26.5 21.5a137.1 137.1 0 0 1-20.8 7.5 67.3 67.3 0 0 1-16.3 2.3q-11 0-17.2-4.4-6.2-4.4-7.5-10.8-1.5-7.6 3.3-15.9 4.8-8.2 15.5-12.8 13-5.5 26-24.3 13-18.8 25.4-45.6 12.5-26.8 24.1-59.8 11.6-32.9 22-66.8 10.4-33.9 19-66.4 8.6-32.5 15.1-58.7 6.5-26.3 10.6-43.8 4.1-17.5 5-21.8 2.5-9.4 9.2-13.7A27.1 27.1 0 0 1 395 203.6q11 0 16.4 6 5.4 6 8.4 21.2 6.2 19.2 11.1 36.2 4.9 17 9.7 34.8 4.7 17.9 9.1 38.5 4.5 20.6 9.7 47.4 3.7 19.2 7.5 42.4 3.7 23.2 9.3 51.9 23.7-66.5 42.1-117.3 18.4-50.8 32.6-85.1 14.2-34.3 25.2-51.9 10.9-17.5 19.5-17.5h2.1a9.8 9.8 0 0 0 1.8-0.2 10.8 10.8 0 0 1 1.8-0.1q7.3 0 13.4 9.2 6.1 9.2 8.9 23.8 1.7 15 3.6 37.2 1.9 22.2 3.9 49 2 26.7 4.1 56.3 2.1 29.6 4.1 58.7 2 29.1 4.1 56.6 2.1 27.5 4.3 49.7a53.3 53.3 0 0 0 1 8.1l1.6 8.4q1.5 8 3.4 16 1.9 8.1 3.4 16 1.8 9.2 2.7 18.5A38.6 38.6 0 0 1 657.9 634q-2.6 7.5-10.6 12.2-7.9 4.7-23.5 4.7a19.4 19.4 0 0 1-14.3-6.3q-6.1-6.3-9.2-22.4z"/>
        <path class="cls-1" d="m2850.3 543.2a26.3 26.3 0 0 0-8.4-12.8q-6-4.9-11.4-4.9a11.6 11.6 0 0 0-4.6 0.9 6.7 6.7 0 0 0-3.3 3q-4.8 7.9-13.5 19.7a201.3 201.3 0 0 1-19.5 22.6 123.3 123.3 0 0 1-23.4 18.5q-12.6 7.6-25.4 7.6a31.2 31.2 0 0 1-11.4-1.8q-4.7-1.8-6.8-8.5a31.6 31.6 0 0 1-0.6-15.7 84.9 84.9 0 0 1 5-16.3 150.2 150.2 0 0 1 7.2-14.9q3.9-7 6.1-11.6a115.1 115.1 0 0 0 10.2-30.2q3.2-16.5-2.5-34.8a54.8 54.8 0 0 0-25.6-32.5 64.3 64.3 0 0 0-18.6-7.2 93 93 0 0 0-19.9-2.1 77 77 0 0 0-24 3.4 69.3 69.3 0 0 0-18.1 8.8 78.1 78.1 0 0 0-14 12.4 143.6 143.6 0 0 0-10.9 13.9 60.2 60.2 0 0 0-10-17.7 55.3 55.3 0 0 0-29.2-18.6 67 67 0 0 0-16.8-2.1q-17.1 0-29.3 4.9a75.5 75.5 0 0 0-21 12.4 102.6 102.6 0 0 0-15.5 16.3q-6.7 8.9-12.5 16.5a46.2 46.2 0 0 0-1.8-17.4q-3.3-10.7-11.1-16.3-7.7-5.6-15.3-5.6a22.8 22.8 0 0 0-15.8 6.4q-7 6.4-8.4 19.5-1.2 10.7-3.4 25.8-2.1 15.1-4.6 32.2c-0.5 3.3-0.9 6.5-1.4 9.8q-13.1 19.5-25.4 34.7-5.3 6.4-11.1 12.7a131.3 131.3 0 0 1-11.5 11.2 67 67 0 0 1-11.1 7.8 21 21 0 0 1-9.9 2.9 15.2 15.2 0 0 1-12.2-6 44.1 44.1 0 0 1-7.8-15.1 84.3 84.3 0 0 1-3.2-16.9q-1-9.9-1.1-21.2-0.1-11.3 0.3-23 0.4-11.7 1-22.6 0.6-10.8 1-19.7 0.4-8.8 0.1-14.6a15.6 15.6 0 0 0-0.7-3.4q-2.4-7.6-11.7-14a36 36 0 0 0-20.9-6.4 23.6 23.6 0 0 0-8.2 1.7 65 65 0 0 0-8.4 3.8q-4.7 2.4-9.1 5.2a131.7 131.7 0 0 0-17.4-10.7 136.5 136.5 0 0 0-19.4-7.3 84.7 84.7 0 0 0-24.5-3.4q-25.9 0-44.2 9a90.2 90.2 0 0 0-30.2 23.5 105.1 105.1 0 0 0-18.3 32.8 163.8 163.8 0 0 0-8.2 37.1 192.3 192.3 0 0 0-0.9 27.3q-4.9 3.5-11.1 7.7-10 6.7-22.6 14.2-12.6 7.5-26.3 13.9a184.7 184.7 0 0 1-28.4 10.5 106.8 106.8 0 0 1-28.8 4.1q-13.1 0-22.6-5a30.7 30.7 0 0 1-13.8-13.9q36.7-15.3 59.6-30.4 22.9-15.1 34.8-29.6 11.9-14.5 14.3-28.5a57.5 57.5 0 0 0-1.7-26.8q-6.8-21.7-23.2-33.9-16.4-12.2-41.6-12.2-24.1 0-43.1 7a113.2 113.2 0 0 0-33.1 18.6 110.6 110.6 0 0 0-23.5 26.7 128.6 128.6 0 0 0-14.2 31 115.2 115.2 0 0 0-5.1 31.6 97.6 97.6 0 0 0 1.4 18.7c-0.4 0.1-0.9 0.3-1.3 0.4a96.5 96.5 0 0 1-26.8 3.7 37.7 37.7 0 0 1-7.9-0.8 13.2 13.2 0 0 1-6.8-4.1 93.1 93.1 0 0 0 4.5-21.2 212.4 212.4 0 0 0 1.2-23.5 196.4 196.4 0 0 0-1.1-20.6 79.4 79.4 0 0 0-2-12.2 71.2 71.2 0 0 0-12.4-23.6 86.7 86.7 0 0 0-39.7-27.9 64 64 0 0 0-20.4-3.7 87.6 87.6 0 0 0-25.1 3.5 108.5 108.5 0 0 0-21.8 9.2 127.3 127.3 0 0 0-18.9 12.8 192.4 192.4 0 0 0-16.1 14.8q8.9-43.6 15.1-88.3 6.2-44.7 15.2-88a80.7 80.7 0 0 0 2.6-13.3 32.1 32.1 0 0 0-1.1-13.3 26.5 26.5 0 0 0-9.8-13.4q-7.4-5.5-21.4-5.5a31.1 31.1 0 0 0-10.3 1.7 28.8 28.8 0 0 0-8.5 4.6 26.8 26.8 0 0 0-6 6.6 19 19 0 0 0-3 7.6l-27.1 198q-1.2 7.9-1.7 13c-0.4 3.4-0.7 6.3-0.9 8.9-0.2 2.5-0.4 5-0.6 7.3-0.2 2.3-0.4 5.1-0.6 8.2-0.2 3.2-0.6 7-1 11.4-0.4 4.4-1 10.1-1.8 16.8q-0.8 8.6-0.8 17.6-8.9 8.7-19.6 17.4a295.4 295.4 0 0 1-27 19.4 192.5 192.5 0 0 1-28.9 15.3 12.2 12.2 0 0 1-5.7 3.2 27 27 0 0 1-4.7 0.5 8 8 0 0 1-5.4-1.8 9.3 9.3 0 0 1-2.9-4.3q-2-6.4 0.4-11.3 1.3-5.5 4-13.9l6-18.5q3.3-10.1 6.2-21.5A196.3 196.3 0 0 0 1549 503a143.8 143.8 0 0 0 1.3-23.8 85.3 85.3 0 0 0-3.8-22.9q-5.8-18.6-19.1-26.4a57.1 57.1 0 0 0-29.4-7.8 95.9 95.9 0 0 0-28.9 4.6 146.4 146.4 0 0 0-27.4 11.7 116 116 0 0 0-22.5 16.1q-9.7 9-13.7 17.6a36.8 36.8 0 0 0 0.3-9.8 46.9 46.9 0 0 0-1.8-8.5q-3.2-10.4-10.7-15.7-7.5-5.3-14.8-5.3a23.4 23.4 0 0 0-16 6.4q-7.1 6.4-9.1 19.5c-0.5 3.2-1 6.6-1.6 10.4a4.7 4.7 0 0 0-2.5 1.8q-2.5 4.6-6.4 11.1-3.9 6.6-8.9 13.9-5 7.3-11 14.6a117.3 117.3 0 0 1-12.4 13.1 69.7 69.7 0 0 1-13.1 9.5 26.9 26.9 0 0 1-13 3.7 27.5 27.5 0 0 1-9-1.5 26.2 26.2 0 0 1-8.6-5.2 142.8 142.8 0 0 0-0.4-24.6 107.8 107.8 0 0 0-4.1-20.9q-5.5-17.7-16.8-29.7a97.1 97.1 0 0 0-24.8-19.4 105.1 105.1 0 0 0-27.8-10.4 124.5 124.5 0 0 0-25.8-3q-26.9 0-46.1 8.7a93.7 93.7 0 0 0-31.9 22.9 102.2 102.2 0 0 0-19.4 32 160.7 160.7 0 0 0-9.2 36 165.6 165.6 0 0 0-1 35.2 135.9 135.9 0 0 0 5.2 29.3q5.6 18 16.6 30.5a102.9 102.9 0 0 0 23.6 20.3 96 96 0 0 0 25 11.1q12.4 3.3 20.9 3.4 22.6 0 40.8-5.6a112.1 112.1 0 0 0 32.3-15.7 97 97 0 0 0 23.7-24.1 122 122 0 0 0 15.2-31.1 79.6 79.6 0 0 0 17.6 7.9 56.6 56.6 0 0 0 16.2 2.5 37.3 37.3 0 0 0 21.2-6.4 84.8 84.8 0 0 0 17.4-15.6c0.1-0.1 0.2-0.2 0.3-0.4-1.2 7.6-2.2 14.8-3.1 21.7q-1.9 15.3-2.6 26.9-0.6 11.6 1 16.8a34.1 34.1 0 0 0 11.3 16.5 29 29 0 0 0 18.9 6.7q10.4 0 15.2-6.5a45.8 45.8 0 0 0 7.2-16.5 198.5 198.5 0 0 0 3.8-21.4 137 137 0 0 1 4.4-21.5q5.1-14.9 12-33.9a217.7 217.7 0 0 1 16.9-35.8 107.9 107.9 0 0 1 23.9-28.5q13.9-11.6 33.4-11.6a12.8 12.8 0 0 1 8.8 3.2 17.2 17.2 0 0 1 5 7.8q1.6 5.2 0.2 13.4-1.4 8.2-4 18.8-2.6 10.5-6 22.3-3.3 11.8-5.9 23.6a178.5 178.5 0 0 0-3.4 23.2 65 65 0 0 0 1.5 20.8c0.3 1.6 0.6 3.1 0.9 4.4 0.3 1.3 0.7 2.7 1.1 4.1q5.1 16.2 15.4 25.2 10.3 9 26.5 9a59.9 59.9 0 0 0 11.7-1.2 104 104 0 0 0 13.4-3.7 223 223 0 0 0 35.9-14.5 216 216 0 0 0 27.1-16.8 269.8 269.8 0 0 0 23.5-19.4l1.7-1.5a118.5 118.5 0 0 0 9.7 20.2 85.4 85.4 0 0 0 18.1 21.4 83.1 83.1 0 0 0 25.3 14.5q14.5 5.3 33.1 5.3 33.9 0 58.5-14.5 24.6-14.5 40.8-45.6a55.9 55.9 0 0 0 17 8.5 65 65 0 0 0 18.9 2.8 127.9 127.9 0 0 0 29.1-3.2 165.8 165.8 0 0 0 16.1-4.6 129.4 129.4 0 0 0 23 26.5 113.4 113.4 0 0 0 30 18.9 87.4 87.4 0 0 0 34.7 7 153.9 153.9 0 0 0 41.6-5.6 225 225 0 0 0 37.8-14.2A253.1 253.1 0 0 0 2097 613q11-7.5 19.8-14.5a74.7 74.7 0 0 0 12.4 20.4 96.5 96.5 0 0 0 21.8 18.9 89.3 89.3 0 0 0 23.3 10.5q11.5 3.2 19.5 3.2a57.3 57.3 0 0 0 28.4-7.2 94.4 94.4 0 0 0 23.3-18.3 133.2 133.2 0 0 0 18.2-24.7 246.6 246.6 0 0 0 13.2-26.3 48.6 48.6 0 0 0 0.6 11.8 93 93 0 0 0 3.1 12.7 95.2 95.2 0 0 0 8.4 19.1 79.2 79.2 0 0 0 12.7 16.6 63.8 63.8 0 0 0 16.4 11.9 43.2 43.2 0 0 0 19.7 4.6 53.7 53.7 0 0 0 23.6-5.6 121.8 121.8 0 0 0 22.8-14.5 182.2 182.2 0 0 0 21-19.7c2.4-2.6 4.7-5.2 6.9-7.8-0.1 2.4-0.2 4.8-0.3 7q-0.3 11.6 1.4 17.1a34.8 34.8 0 0 0 11.7 16.8 30.2 30.2 0 0 0 19.6 7q10.1 0 14.6-6.9a49.4 49.4 0 0 0 6.8-16.9 156.1 156.1 0 0 0 3-22 142.1 142.1 0 0 1 3.2-22q3-9.8 6.6-21.7 3.6-11.9 8.2-24a200.1 200.1 0 0 1 10.7-23.3 98.8 98.8 0 0 1 14-20 67.5 67.5 0 0 1 17.9-14 46.6 46.6 0 0 1 22.4-5.3 13.3 13.3 0 0 1 8.9 3.2 17.2 17.2 0 0 1 5.3 8.1 22.4 22.4 0 0 1 1 9 47.2 47.2 0 0 1-2 9.3q-5.2 17.4-11.9 34-6.7 16.6-11.7 32.8a175.7 175.7 0 0 0-6.8 31.4 71.4 71.4 0 0 0 2.8 29.9 21.3 21.3 0 0 0 4.9 7.3 35.6 35.6 0 0 0 7.6 5.8 41.5 41.5 0 0 0 9 3.8 30.4 30.4 0 0 0 8.4 1.4q10.1 0 14.6-6.9a49.4 49.4 0 0 0 6.8-16.9 156.1 156.1 0 0 0 3-22 142.1 142.1 0 0 1 3.2-22q3-9.8 6.6-21.7 3.6-11.9 8.2-24a200.1 200.1 0 0 1 10.7-23.3 99.2 99.2 0 0 1 14-20 67.5 67.5 0 0 1 17.9-14 46.6 46.6 0 0 1 22.4-5.3 13.3 13.3 0 0 1 8.9 3.2 17.2 17.2 0 0 1 5.3 8.1 22.4 22.4 0 0 1 1 9 47.2 47.2 0 0 1-2 9.3 137.7 137.7 0 0 1-9.2 23.2 252 252 0 0 0-10.5 24 108.4 108.4 0 0 0-6.3 25.8q-1.6 13.4 3.2 28.7 7.3 23.2 24.5 33.9 17.2 10.7 39.8 10.7a81.6 81.6 0 0 0 32.8-6.7 132.2 132.2 0 0 0 29.5-17.8 204 204 0 0 0 26.8-25.6q12.7-14.5 24.2-30.3 6.6-7 8-14.3a27.4 27.4 0 0 0-0.4-13.2zm-1639.5 0.6a68.7 68.7 0 0 1-7.9 27.3 55.5 55.5 0 0 1-17.5 19.5 43.1 43.1 0 0 1-25 7.5 30.7 30.7 0 0 1-15.9-4 41.6 41.6 0 0 1-11.5-9.9 58.5 58.5 0 0 1-7.8-12.8 115.1 115.1 0 0 1-4.9-12.7 75.8 75.8 0 0 1-3.4-30.4 67.5 67.5 0 0 1 8-26.5 52.8 52.8 0 0 1 17.6-18.9 45.5 45.5 0 0 1 25.4-7.2q9.5 0 16 3.5a37.5 37.5 0 0 1 11.2 9 48.2 48.2 0 0 1 7.4 12.1 135.1 135.1 0 0 1 4.7 12.7 79.4 79.4 0 0 1 3.6 30.8zm576.6-7.2a77.6 77.6 0 0 1-11.4 31 68.8 68.8 0 0 1-22.8 22.1 60.4 60.4 0 0 1-31.7 8.4 38.8 38.8 0 0 1-15.5-2.7 33.2 33.2 0 0 1-10.6-7 35.5 35.5 0 0 1-6.7-9.3 68.8 68.8 0 0 1-4-9.9 69.6 69.6 0 0 1-2.1-34.9 81.3 81.3 0 0 1 13-31 73.8 73.8 0 0 1 24.4-22.1 64 64 0 0 1 32.2-8.4 27.8 27.8 0 0 1 13.1 2.9 32.3 32.3 0 0 1 9.3 7.2 38.4 38.4 0 0 1 6.2 9.5 83.7 83.7 0 0 1 3.8 9.8 77 77 0 0 1 2.9 34.6zm151.3 11.4q0-5.8 0.9-14.3a127.8 127.8 0 0 1 3.1-17.8 159.1 159.1 0 0 1 5.9-18.8 61.7 61.7 0 0 1 9.7-16.9 47.1 47.1 0 0 1 14.7-12 42.6 42.6 0 0 1 20.2-4.6h2.7a16.1 16.1 0 0 1 2.9 0.3 17.7 17.7 0 0 1 7.6 3.4 14 14 0 0 1 5.2 7.3q1.7 5.5-1.1 13-2.8 7.5-13.9 16c-1.6 1.2-4.4 3.6-8.3 7-3.9 3.4-8.5 7.3-13.9 11.6-5.4 4.3-11.1 8.7-17.3 13.4-6.2 4.7-12.2 8.9-18.2 12.5zm318.3-33a148.5 148.5 0 0 1-5.9 19.2 211.1 211.1 0 0 1-9.6 21.8 156.9 156.9 0 0 1-12.4 20.5 82.4 82.4 0 0 1-13.8 15.3q-7.1 5.9-13.8 5.9a28.4 28.4 0 0 1-14.7-3.7 39.7 39.7 0 0 1-10.6-9.2 50.4 50.4 0 0 1-7.3-12 133.2 133.2 0 0 1-4.7-12.7 74.2 74.2 0 0 1-3.2-29.7 67.9 67.9 0 0 1 8.1-26.7 54.4 54.4 0 0 1 17.8-19.2 45.3 45.3 0 0 1 25.5-7.3 54.1 54.1 0 0 1 12 1.7 66.4 66.4 0 0 1 13.9 5 57 57 0 0 1 12.3 8.1 23.2 23.2 0 0 1 7.3 10.5c0.7 2.7 0.5 6.8-0.7 12.5z"/>
        <path class="cls-1" d="M890.3 418.5A108.7 108.7 0 0 0 781.5 527.2v0 0.4a5.4 5.4 0 0 0 5.4 5h206.7a5.4 5.4 0 0 0 5.4-5v-0.2a1.8 1.8 0 0 0 0-0.2v0A108.7 108.7 0 0 0 890.3 418.5Z"/>
        <circle class="cls-2" cx="702.9" cy="648.6" r="6.6"/>
        <path class="cls-2" d="M986.4 612H764.6a6.5 6.5 0 0 0-5.7 9.6l0.1 0.2a6.5 6.5 0 0 0 5.7 3.4h221.6a6.5 6.5 0 0 0 5.7-3.4l0.1-0.2A6.5 6.5 0 0 0 986.4 612Z"/>
        <path class="cls-2" d="M1015.9 552H764.6a6.5 6.5 0 0 0-6.5 6.9v0.2a6.5 6.5 0 0 0 6.5 6.1h251.3a6.5 6.5 0 0 0 6.5-6.1v-0.2a6.5 6.5 0 0 0-6.5-6.9z"/>
        <path class="cls-2" d="M921.3 702H808c-6.9 0-9 9.3-2.9 12.4l0.4 0.2a6.5 6.5 0 0 0 2.9 0.7h112.4a6.5 6.5 0 0 0 2.9-0.7l0.4-0.2c6.1-3.1 4-12.3-2.9-12.3z"/>
        <path class="cls-2" d="M990.5 672H877.2c-6.9 0-9 9.3-2.9 12.4l0.4 0.2a6.5 6.5 0 0 0 2.9 0.7h112.4a6.5 6.5 0 0 0 2.9-0.7l0.4-0.2A6.5 6.5 0 0 0 990.5 672Z"/>
        <path class="cls-2" d="m836.1 653.2-0.2-0.2A6.5 6.5 0 0 1 840.6 642h183.8a6.5 6.5 0 0 1 4.8 10.9l-0.2 0.2a6.6 6.6 0 0 1-4.8 2.1H840.8a6.6 6.6 0 0 1-4.8-2.1z"/>
        <path class="cls-2" d="m726.6 642h87.8c6.9 0 9 9.3 2.9 12.4l-0.4 0.2a6.5 6.5 0 0 1-2.9 0.7H727a6.5 6.5 0 0 1-2.9-0.7l-0.4-0.2C717.5 651.3 719.7 642 726.6 642Z"/>
        <circle class="cls-2" cx="741" cy="558.7" r="6.6"/>
        <path class="cls-2" d="m903.6 590.4 0.1-0.2a6.5 6.5 0 0 0-6.3-8.2H713.5a6.5 6.5 0 0 0-6.3 8.2l0.1 0.2a6.5 6.5 0 0 0 6.3 4.8h183.7a6.6 6.6 0 0 0 6.3-4.8z"/>
        <circle class="cls-2" cx="689.8" cy="588.6" r="6.6"/>
        <circle class="cls-2" cx="741" cy="618.6" r="6.6"/>
        <circle class="cls-2" cx="853.6" cy="678.6" r="6.6"/>
        <circle class="cls-2" cx="784.4" cy="708.6" r="6.6"/>
      </g>
    </g>
  </g>
</svg>